HIERARCHY
ROOT Hips
{
 OFFSET 0.000000 0.000000 0.000000
 CHANNELS 6 Xposition Yposition Zposition Yrotation Xrotation Zrotation
 JOINT Chest
 {
  OFFSET 0.000000 9.585900 0.002600
  CHANNELS 3 Yrotation Xrotation Zrotation
  JOINT Chest2
  {
   OFFSET 0.000000 9.601200 -0.005300
   CHANNELS 3 Yrotation Xrotation Zrotation
   JOINT Chest3
   {
    OFFSET 0.000000 9.561800 0.000000
    CHANNELS 3 Yrotation Xrotation Zrotation
    JOINT Chest4
    {
     OFFSET 0.000000 9.552100 0.000000
     CHANNELS 3 Yrotation Xrotation Zrotation
     JOINT Neck
     {
      OFFSET 0.000000 14.453000 0.000000
      CHANNELS 3 Yrotation Xrotation Zrotation
      JOINT Head
      {
       OFFSET 0.000000 8.936500 -0.011300
       CHANNELS 3 Yrotation Xrotation Zrotation
       End Site
       {
        OFFSET 0.000000 17.073600 -0.006000
       }
      }
     }
     JOINT RightCollar
     {
      OFFSET -2.921100 9.558500 0.000000
      CHANNELS 3 Yrotation Xrotation Zrotation
      JOINT RightShoulder
      {
       OFFSET -13.519700 0.000000 0.000000
       CHANNELS 3 Yrotation Xrotation Zrotation
       JOINT RightElbow
       {
        OFFSET 0.000000 -29.696600 0.000000
        CHANNELS 3 Yrotation Xrotation Zrotation
        JOINT RightWrist
        {
         OFFSET 0.000000 -24.004700 0.000000
         CHANNELS 3 Yrotation Xrotation Zrotation
         End Site
         {
          OFFSET 0.000000 -17.728500 0.000000
         }
        }
       }
      }
     }
     JOINT LeftCollar
     {
      OFFSET 2.921100 9.558500 0.000000
      CHANNELS 3 Yrotation Xrotation Zrotation
      JOINT LeftShoulder
      {
       OFFSET 13.519700 0.000000 0.000000
       CHANNELS 3 Yrotation Xrotation Zrotation
       JOINT LeftElbow
       {
        OFFSET 0.000000 -29.696600 0.000000
        CHANNELS 3 Yrotation Xrotation Zrotation
        JOINT LeftWrist
        {
         OFFSET 0.000000 -24.004700 0.000000
         CHANNELS 3 Yrotation Xrotation Zrotation
         End Site
         {
          OFFSET 0.000000 -17.728500 0.000000
         }
        }
       }
      }
     }
    }
   }
  }
 }
 JOINT RightHip
 {
  OFFSET -7.771700 -0.012900 -0.001300
  CHANNELS 3 Yrotation Xrotation Zrotation
  JOINT RightKnee
  {
   OFFSET 0.000000 -40.869800 0.001200
   CHANNELS 3 Yrotation Xrotation Zrotation
   JOINT RightAnkle
   {
    OFFSET 0.000000 -39.717900 0.002100
    CHANNELS 3 Yrotation Xrotation Zrotation
    JOINT RightToe
    {
     OFFSET 0.000000 -4.965400 11.033500
     CHANNELS 3 Yrotation Xrotation Zrotation
     End Site
     {
      OFFSET 0.000000 -1.423100 5.872300
     }
    }
   }
  }
 }
 JOINT LeftHip
 {
  OFFSET 7.771700 -0.012900 -0.001300
  CHANNELS 3 Yrotation Xrotation Zrotation
  JOINT LeftKnee
  {
   OFFSET 0.000000 -40.869800 0.001200
   CHANNELS 3 Yrotation Xrotation Zrotation
   JOINT LeftAnkle
   {
    OFFSET 0.000000 -39.717900 0.002100
    CHANNELS 3 Yrotation Xrotation Zrotation
    JOINT LeftToe
    {
     OFFSET 0.000000 -4.965400 11.033500
     CHANNELS 3 Yrotation Xrotation Zrotation
     End Site
     {
      OFFSET 0.000000 -1.423100 5.872300
     }
    }
   }
  }
 }
}
MOTION
Frames: 9
Frame Time: 0.008333
0.000000 85.388000 0.000000 0.000000 -5.767877 0.000000 0.000000 11.653817 0.000000 0.000000 -5.885947 0.000000 0.000000 -0.000000 0.000000 0.000000 -0.000000 0.000000 0.000000 12.528835 0.000000 0.000000 0.711642 0.000000 0.000000 -0.000000 0.000000 0.000000 0.000000 -90.000000 0.000000 -2.309062 0.000000 0.000000 2.309062 0.000000 0.000000 -0.000000 0.000000 0.000000 -0.000000 90.000000 0.000000 -2.309062 0.000000 0.000000 2.309062 0.000000 0.000000 8.520406 0.000000 0.000000 1.905762 0.000000 -0.000000 -4.658285 0.000000 0.000000 -0.000000 0.000000 0.000000 8.520406 0.000000 0.000000 1.905762 0.000000 -0.000000 -4.658285 0.000000 0.000000 -0.000000 0.000000
-9.885131 46.588144 24.020301 176.262336 -30.059606 -3.648915 -0.210256 19.250765 1.461701 -0.020467 2.308890 0.236669 -0.012584 3.794421 0.401019 0.051709 16.690585 1.724008 -7.124249 19.226124 2.560101 -13.805237 0.513489 6.854080 1.391435 2.216197 -0.454469 -17.095609 -16.829883 -29.886595 133.011739 -66.998901 -110.257550 12.820762 18.497366 -7.965465 0.971969 -0.087849 1.447665 0.440685 -8.247403 14.039574 123.458808 -80.519643 -153.287004 -4.966927 15.346894 9.673807 -1.134375 -56.698183 -5.845126 -162.377951 77.345777 -153.349896 -13.647259 -14.473902 -3.261854 0.023632 -0.331587 0.014789 -1.323646 -58.892791 13.596761 -107.311992 82.941546 -111.931781 3.382172 -4.783799 4.954369 0.319010 0.391779 0.136296
-9.884751 46.586506 24.021706 176.260200 -30.106595 -3.672998 -0.255985 19.299496 1.420393 -0.024680 2.322939 0.234875 -0.035578 3.825285 0.386420 0.038282 16.725128 1.711871 -7.690902 19.259451 2.705252 -14.878933 0.665710 7.280724 1.419203 2.225380 -0.537486 -17.193812 -17.153538 -30.440094 131.391183 -66.956313 -108.708970 12.729419 18.429315 -8.234892 1.004258 -0.090225 1.448228 0.475572 -8.284943 14.058702 123.253851 -80.453332 -153.165825 -4.973876 15.331504 9.614771 -1.180397 -56.658462 -5.780034 -162.233878 77.330460 -153.219466 -13.644484 -14.459284 -3.262385 0.020145 -0.344448 0.020710 -1.321240 -58.852397 13.643338 -107.201265 82.909754 -111.842214 3.412001 -4.774701 5.007323 0.288837 0.381318 0.124065
-9.882671 46.585430 24.021702 176.243059 -30.173369 -3.708357 -0.269748 19.368237 1.412805 -0.046611 2.338725 0.219337 -0.001152 3.826818 0.410807 -0.041065 16.791306 1.661547 -8.270398 19.290677 2.838042 -15.971531 0.819938 7.686911 1.444787 2.228082 -0.653915 -17.262786 -17.479316 -30.993121 129.545323 -66.918151 -106.945320 12.645554 18.370221 -8.501206 1.035438 -0.095945 1.442368 0.445070 -8.265795 14.057737 123.430542 -80.392860 -153.347399 -4.985232 15.316095 9.548733 -1.237175 -56.597958 -5.691550 -162.110057 77.315562 -153.102752 -13.623110 -14.444731 -3.268043 0.029970 -0.361631 0.020833 -1.331396 -58.794456 13.714763 -107.173145 82.877478 -111.813802 3.427406 -4.775511 5.030768 0.276984 0.376498 0.122512
-9.883540 46.583473 24.021775 176.214225 -30.243636 -3.730774 -0.299776 19.441630 1.372967 -0.050205 2.354569 0.217198 -0.026840 3.861819 0.393603 -0.045584 16.829651 1.648968 -8.845801 19.321720 2.960900 -17.052653 0.977589 8.071647 1.468758 2.218794 -0.801689 -17.296626 -17.797091 -31.537788 127.422164 -66.876802 -104.929225 12.572102 18.319358 -8.757877 1.065014 -0.105018 1.432551 0.419732 -8.242814 14.058837 123.627153 -80.330206 -153.553677 -5.000265 15.298491 9.480354 -1.263588 -56.532308 -5.630724 -162.025123 77.305928 -153.015958 -13.603003 -14.444136 -3.278138 0.041721 -0.362387 0.023593 -1.338963 -58.730069 13.779445 -107.172275 82.852547 -111.822899 3.453479 -4.782840 5.057556 0.258109 0.374739 0.114207
-9.885272 46.580611 24.022312 176.180594 -30.313199 -3.757001 -0.345176 19.513339 1.314636 -0.035590 2.370472 0.228373 -0.053665 3.899734 0.375187 -0.046481 16.870310 1.635017 -9.401289 19.355380 3.078171 -18.094715 1.141703 8.437740 1.491959 2.193304 -0.971883 -17.280224 -18.099371 -32.074929 124.967950 -66.822026 -102.623447 12.508874 18.278556 -8.998686 1.090701 -0.116485 1.424346 0.425559 -8.232908 14.068413 123.707205 -80.264236 -153.677065 -5.019995 15.279181 9.408970 -1.274811 -56.469089 -5.580878 -161.995248 77.300641 -152.973332 -13.578680 -14.433303 -3.286448 0.043576 -0.369449 0.022065 -1.351669 -58.667567 13.849620 -107.208068 82.838594 -111.854980 3.457906 -4.788290 5.057809 0.260945 0.374522 0.118831
-9.884836 46.576331 24.024842 176.132142 -30.372279 -3.800526 -0.354772 19.572251 1.295341 -0.038504 2.388093 0.225625 -0.012782 3.904048 0.406780 -0.125386 16.946688 1.570846 -9.926048 19.391454 3.192682 -19.078961 1.310105 8.787618 1.509169 2.152391 -1.152608 -17.191245 -18.387702 -32.610696 122.141224 -66.737971 -99.998606 12.454291 18.253495 -9.216481 1.105418 -0.127602 1.421228 0.439056 -8.215897 14.076830 123.827295 -80.198366 -153.837366 -5.037865 15.257088 9.336060 -1.320073 -56.414847 -5.472509 -161.873599 77.302073 -152.841417 -13.566145 -14.417880 -3.292755 0.062959 -0.370496 0.018750 -1.373641 -58.623959 13.956251 -107.289740 82.819547 -111.922269 3.458957 -4.790255 5.055676 0.264584 0.371445 0.128687
-9.884917 46.572493 24.025778 176.079837 -30.441994 -3.848339 -0.363781 19.642692 1.272538 0.003426 2.396055 0.262911 -0.085874 3.952931 0.345805 -0.117406 16.989105 1.556127 -10.413006 19.428562 3.301905 -19.991776 1.477887 9.115112 1.518875 2.099875 -1.333719 -17.018886 -18.672129 -33.151596 118.925607 -66.612949 -97.037238 12.409455 18.246513 -9.403772 1.111564 -0.134109 1.424894 0.453250 -8.194974 14.088452 123.978944 -80.130895 -154.019810 -5.047894 15.228380 9.263025 -1.375919 -56.348656 -5.346634 -161.804780 77.308447 -152.768095 -13.559669 -14.408669 -3.295167 0.038704 -0.366973 0.015627 -1.367996 -58.576982 14.053710 -107.416474 82.787400 -112.029647 3.474452 -4.790155 5.068026 0.255968 0.360772 0.136111
-9.890036 46.566950 24.028169 176.021202 -30.497480 -3.871573 -0.383094 19.698753 1.215359 -0.020167 2.418918 0.240582 -0.090427 3.988030 0.338422 -0.107263 17.031169 1.540094 -10.853229 19.465618 3.402067 -20.816191 1.639728 9.411268 1.530027 2.037325 -1.507755 -16.770722 -18.965475 -33.701150 115.342214 -66.443490 -93.737112 12.370330 18.251576 -9.557602 1.117013 -0.135361 1.435247 0.465428 -8.172232 14.109354 124.130891 -80.062484 -154.191975 -5.053096 15.190145 9.176246 -1.381031 -56.303029 -5.277169 -161.816119 77.316458 -152.769893 -13.545390 -14.399561 -3.308772 0.066569 -0.364710 0.023176 -1.366002 -58.534666 14.137422 -107.534995 82.765942 -112.149607 3.477153 -4.811727 5.078495 0.246844 0.369900 0.139388
